<svg width="16.682800" height="16.680420" viewBox="0 0 16.6828 16.6804" fill="none" xmlns="http://www.w3.org/2000/svg" xmlns:xlink="http://www.w3.org/1999/xlink">
	<desc>
			Created with Pixso.
	</desc>
	<defs/>
	<path id="Vector" d="M10.29 8.33L16.27 2.38C16.53 2.11 16.68 1.76 16.68 1.39C16.68 1.02 16.53 0.66 16.27 0.4C16.01 0.14 15.65 0 15.28 0C14.91 0 14.56 0.14 14.29 0.4L8.34 6.38L2.38 0.4C2.12 0.14 1.76 0 1.39 0C1.02 0 0.67 0.14 0.41 0.4C0.14 0.66 0 1.02 0 1.39C0 1.76 0.14 2.11 0.41 2.38L6.38 8.33L0.41 14.29C0.28 14.42 0.17 14.58 0.1 14.74C0.03 14.91 0 15.1 0 15.28C0 15.46 0.03 15.64 0.1 15.81C0.17 15.98 0.28 16.14 0.41 16.26C0.53 16.39 0.69 16.5 0.86 16.57C1.03 16.64 1.21 16.68 1.39 16.68C1.58 16.68 1.76 16.64 1.93 16.57C2.1 16.5 2.25 16.39 2.38 16.26L8.34 10.29L14.29 16.26C14.42 16.39 14.58 16.5 14.75 16.57C14.92 16.64 15.1 16.68 15.28 16.68C15.46 16.68 15.65 16.64 15.81 16.57C15.98 16.5 16.14 16.39 16.27 16.26C16.4 16.14 16.5 15.98 16.57 15.81C16.64 15.64 16.68 15.46 16.68 15.28C16.68 15.1 16.64 14.91 16.57 14.74C16.5 14.58 16.4 14.42 16.27 14.29L10.29 8.33Z" fill="#000000" fill-opacity="1.000000" fill-rule="nonzero"/>
</svg>
